<mxfile host="Electron" agent="Mozilla/5.0 (Windows NT 10.0; Win64; x64) AppleWebKit/537.36 (KHTML, like Gecko) draw.io/26.0.4 Chrome/128.0.6613.186 Electron/32.2.5 Safari/537.36" version="26.0.4">
  <diagram name="Pagina-1" id="bR1eEUNgzBOmT2uXbucM">
    <mxGraphModel dx="1290" dy="1790" grid="0" gridSize="10" guides="1" tooltips="1" connect="1" arrows="1" fold="1" page="1" pageScale="1" pageWidth="827" pageHeight="1169" math="0" shadow="0">
      <root>
        <mxCell id="0" />
        <mxCell id="1" parent="0" />
        <mxCell id="Dfc0hTdyU5B1Im9_0PPY-9" style="edgeStyle=orthogonalEdgeStyle;rounded=0;orthogonalLoop=1;jettySize=auto;html=1;exitX=0.5;exitY=1;exitDx=0;exitDy=0;entryX=0.5;entryY=0;entryDx=0;entryDy=0;fillColor=#FF6666;strokeColor=#FF6666;" edge="1" parent="1" source="Dfc0hTdyU5B1Im9_0PPY-1" target="Dfc0hTdyU5B1Im9_0PPY-6">
          <mxGeometry relative="1" as="geometry" />
        </mxCell>
        <mxCell id="Dfc0hTdyU5B1Im9_0PPY-18" style="edgeStyle=orthogonalEdgeStyle;rounded=0;orthogonalLoop=1;jettySize=auto;html=1;entryX=0.5;entryY=0;entryDx=0;entryDy=0;fillColor=#FF6666;strokeColor=#FF6666;" edge="1" parent="1" source="Dfc0hTdyU5B1Im9_0PPY-1" target="Dfc0hTdyU5B1Im9_0PPY-7">
          <mxGeometry relative="1" as="geometry" />
        </mxCell>
        <mxCell id="Dfc0hTdyU5B1Im9_0PPY-20" style="edgeStyle=orthogonalEdgeStyle;rounded=0;orthogonalLoop=1;jettySize=auto;html=1;exitX=0;exitY=0.5;exitDx=0;exitDy=0;entryX=0.5;entryY=0;entryDx=0;entryDy=0;fillColor=#FF6666;strokeColor=#FF6666;" edge="1" parent="1" source="Dfc0hTdyU5B1Im9_0PPY-1" target="Dfc0hTdyU5B1Im9_0PPY-3">
          <mxGeometry relative="1" as="geometry" />
        </mxCell>
        <mxCell id="Dfc0hTdyU5B1Im9_0PPY-1" value="&lt;font color=&quot;#33ffff&quot; style=&quot;font-size: 14px;&quot;&gt;IMPUT&lt;/font&gt;" style="shape=hexagon;perimeter=hexagonPerimeter2;whiteSpace=wrap;html=1;fixedSize=1;" vertex="1" parent="1">
          <mxGeometry x="423" y="-3" width="90" height="51" as="geometry" />
        </mxCell>
        <mxCell id="Dfc0hTdyU5B1Im9_0PPY-17" style="edgeStyle=orthogonalEdgeStyle;rounded=0;orthogonalLoop=1;jettySize=auto;html=1;entryX=0;entryY=0.5;entryDx=0;entryDy=0;fillColor=#FF6666;strokeColor=#FF6666;" edge="1" parent="1" source="Dfc0hTdyU5B1Im9_0PPY-3" target="Dfc0hTdyU5B1Im9_0PPY-12">
          <mxGeometry relative="1" as="geometry">
            <Array as="points">
              <mxPoint x="336" y="175" />
            </Array>
          </mxGeometry>
        </mxCell>
        <mxCell id="Dfc0hTdyU5B1Im9_0PPY-3" value="&lt;font color=&quot;#33ff33&quot;&gt;SENSORE LUCE&lt;/font&gt;" style="rounded=1;whiteSpace=wrap;html=1;" vertex="1" parent="1">
          <mxGeometry x="289" y="77" width="100" height="38" as="geometry" />
        </mxCell>
        <mxCell id="Dfc0hTdyU5B1Im9_0PPY-14" style="edgeStyle=orthogonalEdgeStyle;rounded=0;orthogonalLoop=1;jettySize=auto;html=1;entryX=0.5;entryY=0;entryDx=0;entryDy=0;fillColor=#FF6666;strokeColor=#FF6666;" edge="1" parent="1" source="Dfc0hTdyU5B1Im9_0PPY-6" target="Dfc0hTdyU5B1Im9_0PPY-12">
          <mxGeometry relative="1" as="geometry" />
        </mxCell>
        <mxCell id="Dfc0hTdyU5B1Im9_0PPY-6" value="&lt;font color=&quot;#33ff33&quot;&gt;SENSORE PROSSIMOTA&lt;/font&gt;" style="rounded=1;whiteSpace=wrap;html=1;" vertex="1" parent="1">
          <mxGeometry x="413" y="77" width="100" height="38" as="geometry" />
        </mxCell>
        <mxCell id="Dfc0hTdyU5B1Im9_0PPY-15" style="edgeStyle=orthogonalEdgeStyle;rounded=0;orthogonalLoop=1;jettySize=auto;html=1;exitX=0.5;exitY=1;exitDx=0;exitDy=0;entryX=1;entryY=0.5;entryDx=0;entryDy=0;fillColor=#FF6666;strokeColor=#FF6666;" edge="1" parent="1" source="Dfc0hTdyU5B1Im9_0PPY-7" target="Dfc0hTdyU5B1Im9_0PPY-12">
          <mxGeometry relative="1" as="geometry">
            <Array as="points">
              <mxPoint x="589" y="115" />
              <mxPoint x="589" y="175" />
            </Array>
          </mxGeometry>
        </mxCell>
        <mxCell id="Dfc0hTdyU5B1Im9_0PPY-7" value="&lt;font color=&quot;#33ff33&quot;&gt;SESORE NFC&lt;/font&gt;" style="rounded=1;whiteSpace=wrap;html=1;" vertex="1" parent="1">
          <mxGeometry x="537" y="77" width="100" height="38" as="geometry" />
        </mxCell>
        <mxCell id="Dfc0hTdyU5B1Im9_0PPY-57" style="edgeStyle=orthogonalEdgeStyle;rounded=0;orthogonalLoop=1;jettySize=auto;html=1;entryX=0.625;entryY=0;entryDx=0;entryDy=0;strokeColor=#FFFF33;" edge="1" parent="1" source="Dfc0hTdyU5B1Im9_0PPY-12" target="Dfc0hTdyU5B1Im9_0PPY-35">
          <mxGeometry relative="1" as="geometry">
            <Array as="points">
              <mxPoint x="463" y="238" />
              <mxPoint x="658" y="238" />
            </Array>
          </mxGeometry>
        </mxCell>
        <mxCell id="Dfc0hTdyU5B1Im9_0PPY-12" value="&lt;font color=&quot;#33ffff&quot; style=&quot;font-size: 14px;&quot;&gt;ARDUINO&lt;/font&gt;" style="shape=hexagon;perimeter=hexagonPerimeter2;whiteSpace=wrap;html=1;fixedSize=1;" vertex="1" parent="1">
          <mxGeometry x="418" y="149" width="90" height="51" as="geometry" />
        </mxCell>
        <mxCell id="Dfc0hTdyU5B1Im9_0PPY-32" style="edgeStyle=orthogonalEdgeStyle;rounded=0;orthogonalLoop=1;jettySize=auto;html=1;entryX=0;entryY=0.75;entryDx=0;entryDy=0;fillColor=#FF6666;strokeColor=#FF6666;" edge="1" parent="1" source="Dfc0hTdyU5B1Im9_0PPY-22" target="Dfc0hTdyU5B1Im9_0PPY-12">
          <mxGeometry relative="1" as="geometry">
            <Array as="points">
              <mxPoint x="182" y="221" />
              <mxPoint x="426" y="221" />
            </Array>
          </mxGeometry>
        </mxCell>
        <mxCell id="Dfc0hTdyU5B1Im9_0PPY-22" value="&lt;font color=&quot;#33ffff&quot; style=&quot;font-size: 14px;&quot;&gt;ELABORAZIONE&lt;/font&gt;" style="shape=hexagon;perimeter=hexagonPerimeter2;whiteSpace=wrap;html=1;fixedSize=1;" vertex="1" parent="1">
          <mxGeometry x="118.5" y="290" width="127" height="63" as="geometry" />
        </mxCell>
        <mxCell id="Dfc0hTdyU5B1Im9_0PPY-31" style="edgeStyle=orthogonalEdgeStyle;rounded=0;orthogonalLoop=1;jettySize=auto;html=1;entryX=1;entryY=0.5;entryDx=0;entryDy=0;fillColor=#FF6666;strokeColor=#FF6666;" edge="1" parent="1" source="Dfc0hTdyU5B1Im9_0PPY-25" target="Dfc0hTdyU5B1Im9_0PPY-22">
          <mxGeometry relative="1" as="geometry" />
        </mxCell>
        <mxCell id="Dfc0hTdyU5B1Im9_0PPY-25" value="&lt;font color=&quot;#33ff33&quot;&gt;COMUNICAZIONE&lt;/font&gt;" style="rounded=1;whiteSpace=wrap;html=1;" vertex="1" parent="1">
          <mxGeometry x="243" y="382" width="110" height="38" as="geometry" />
        </mxCell>
        <mxCell id="Dfc0hTdyU5B1Im9_0PPY-29" style="edgeStyle=orthogonalEdgeStyle;rounded=0;orthogonalLoop=1;jettySize=auto;html=1;exitX=0.5;exitY=0;exitDx=0;exitDy=0;entryX=0.5;entryY=1;entryDx=0;entryDy=0;fillColor=#FF6666;strokeColor=#FF6666;" edge="1" parent="1" source="Dfc0hTdyU5B1Im9_0PPY-26" target="Dfc0hTdyU5B1Im9_0PPY-22">
          <mxGeometry relative="1" as="geometry" />
        </mxCell>
        <mxCell id="Dfc0hTdyU5B1Im9_0PPY-26" value="&lt;font color=&quot;#33ff33&quot;&gt;RILEVAMENTO&lt;/font&gt;" style="rounded=1;whiteSpace=wrap;html=1;" vertex="1" parent="1">
          <mxGeometry x="132" y="382" width="100" height="38" as="geometry" />
        </mxCell>
        <mxCell id="Dfc0hTdyU5B1Im9_0PPY-28" style="edgeStyle=orthogonalEdgeStyle;rounded=0;orthogonalLoop=1;jettySize=auto;html=1;entryX=0;entryY=0.5;entryDx=0;entryDy=0;fillColor=#FF6666;strokeColor=#FF6666;" edge="1" parent="1" source="Dfc0hTdyU5B1Im9_0PPY-27" target="Dfc0hTdyU5B1Im9_0PPY-22">
          <mxGeometry relative="1" as="geometry" />
        </mxCell>
        <mxCell id="Dfc0hTdyU5B1Im9_0PPY-27" value="&lt;font color=&quot;#33ff33&quot;&gt;NAVIGAZIONE&lt;/font&gt;" style="rounded=1;whiteSpace=wrap;html=1;" vertex="1" parent="1">
          <mxGeometry x="26" y="382" width="100" height="38" as="geometry" />
        </mxCell>
        <mxCell id="Dfc0hTdyU5B1Im9_0PPY-50" style="edgeStyle=orthogonalEdgeStyle;rounded=0;orthogonalLoop=1;jettySize=auto;html=1;entryX=0.5;entryY=0;entryDx=0;entryDy=0;strokeColor=#FFFF33;" edge="1" parent="1" source="Dfc0hTdyU5B1Im9_0PPY-35" target="Dfc0hTdyU5B1Im9_0PPY-41">
          <mxGeometry relative="1" as="geometry">
            <Array as="points">
              <mxPoint x="552" y="322" />
            </Array>
          </mxGeometry>
        </mxCell>
        <mxCell id="Dfc0hTdyU5B1Im9_0PPY-51" style="edgeStyle=orthogonalEdgeStyle;rounded=0;orthogonalLoop=1;jettySize=auto;html=1;exitX=1;exitY=0.5;exitDx=0;exitDy=0;entryX=0.5;entryY=0;entryDx=0;entryDy=0;strokeColor=#FFFF33;" edge="1" parent="1" source="Dfc0hTdyU5B1Im9_0PPY-35" target="Dfc0hTdyU5B1Im9_0PPY-42">
          <mxGeometry relative="1" as="geometry" />
        </mxCell>
        <mxCell id="Dfc0hTdyU5B1Im9_0PPY-35" value="&lt;font color=&quot;#33ffff&quot;&gt;&lt;span style=&quot;font-size: 14px;&quot;&gt;OUTBPUT&lt;/span&gt;&lt;/font&gt;" style="shape=hexagon;perimeter=hexagonPerimeter2;whiteSpace=wrap;html=1;fixedSize=1;" vertex="1" parent="1">
          <mxGeometry x="602" y="296" width="90" height="51" as="geometry" />
        </mxCell>
        <mxCell id="Dfc0hTdyU5B1Im9_0PPY-55" style="edgeStyle=orthogonalEdgeStyle;rounded=0;orthogonalLoop=1;jettySize=auto;html=1;strokeColor=#FFFF33;" edge="1" parent="1" source="Dfc0hTdyU5B1Im9_0PPY-41" target="Dfc0hTdyU5B1Im9_0PPY-46">
          <mxGeometry relative="1" as="geometry" />
        </mxCell>
        <mxCell id="Dfc0hTdyU5B1Im9_0PPY-41" value="&lt;font color=&quot;#33ff33&quot;&gt;MOTORI&lt;/font&gt;" style="rounded=1;whiteSpace=wrap;html=1;" vertex="1" parent="1">
          <mxGeometry x="502" y="382" width="100" height="38" as="geometry" />
        </mxCell>
        <mxCell id="Dfc0hTdyU5B1Im9_0PPY-56" style="edgeStyle=orthogonalEdgeStyle;rounded=0;orthogonalLoop=1;jettySize=auto;html=1;strokeColor=#FFFF33;" edge="1" parent="1" source="Dfc0hTdyU5B1Im9_0PPY-42" target="Dfc0hTdyU5B1Im9_0PPY-54">
          <mxGeometry relative="1" as="geometry" />
        </mxCell>
        <mxCell id="Dfc0hTdyU5B1Im9_0PPY-42" value="&lt;font color=&quot;#33ff33&quot;&gt;BLUETOOTH&lt;/font&gt;" style="rounded=1;whiteSpace=wrap;html=1;" vertex="1" parent="1">
          <mxGeometry x="692" y="382" width="100" height="38" as="geometry" />
        </mxCell>
        <mxCell id="Dfc0hTdyU5B1Im9_0PPY-46" value="&lt;font color=&quot;#ff33ff&quot;&gt;MOVIMENTO ROBOT&lt;/font&gt;" style="rounded=0;whiteSpace=wrap;html=1;" vertex="1" parent="1">
          <mxGeometry x="496" y="466" width="112" height="36" as="geometry" />
        </mxCell>
        <mxCell id="Dfc0hTdyU5B1Im9_0PPY-54" value="&lt;font color=&quot;#ff33ff&quot;&gt;COMUNICAZIONE SISTEMA&amp;nbsp;&lt;/font&gt;" style="rounded=0;whiteSpace=wrap;html=1;" vertex="1" parent="1">
          <mxGeometry x="686" y="466" width="112" height="36" as="geometry" />
        </mxCell>
      </root>
    </mxGraphModel>
  </diagram>
</mxfile>
